<svg width="48" height="48" viewBox="0 0 48 48" fill="none" xmlns="http://www.w3.org/2000/svg">
<circle cx="24" cy="24" r="24" fill="#FC6760"/>
<path fill-rule="evenodd" clip-rule="evenodd" d="M7.79998 14.4L28.2 14.4C30.5196 14.4 32.4 16.2804 32.4 18.6V22.0584C32.4 22.5129 32.1432 22.9284 31.7366 23.1317L30.6633 23.6684C30.2568 23.8716 30 24.2871 30 24.7417V39.6C30 41.5882 28.3882 43.2 26.4 43.2H9.43732C7.44909 43.2 5.83732 41.5882 5.83732 39.6V24.7181C5.83732 24.2759 5.59416 23.8696 5.2045 23.6606L4.23279 23.1394C3.84313 22.9304 3.59998 22.5241 3.59998 22.0819V18.6C3.59998 16.2804 5.48038 14.4 7.79998 14.4V14.4Z" fill="white" stroke="black" stroke-width="1.8"/>
<path fill-rule="evenodd" clip-rule="evenodd" d="M8.09995 19.8001C7.60289 19.8001 7.19995 19.3972 7.19995 18.9001C7.19995 18.4031 7.60289 18.0001 8.09995 18.0001C8.59701 18.0001 8.99995 18.4031 8.99995 18.9001C8.99995 19.3972 8.59701 19.8001 8.09995 19.8001ZM12.9 19.8001C12.4029 19.8001 12 19.3972 12 18.9001C12 18.4031 12.4029 18.0001 12.9 18.0001C13.397 18.0001 13.8 18.4031 13.8 18.9001C13.8 19.3972 13.397 19.8001 12.9 19.8001ZM10.5 24.6001C10.0029 24.6001 9.59995 24.1972 9.59995 23.7001C9.59995 23.2031 10.0029 22.8001 10.5 22.8001C10.997 22.8001 11.4 23.2031 11.4 23.7001C11.4 24.1972 10.997 24.6001 10.5 24.6001ZM11.7 42.6001C11.2029 42.6001 10.8 42.1972 10.8 41.7001C10.8 41.2031 11.2029 40.8001 11.7 40.8001C12.197 40.8001 12.6 41.2031 12.6 41.7001C12.6 42.1972 12.197 42.6001 11.7 42.6001ZM21.3 42.6001C20.8029 42.6001 20.4 42.1972 20.4 41.7001C20.4 41.2031 20.8029 40.8001 21.3 40.8001C21.797 40.8001 22.2 41.2031 22.2 41.7001C22.2 42.1972 21.797 42.6001 21.3 42.6001ZM16.5 39.0001C16.0029 39.0001 15.6 38.5972 15.6 38.1001C15.6 37.6031 16.0029 37.2001 16.5 37.2001C16.997 37.2001 17.4 37.6031 17.4 38.1001C17.4 38.5972 16.997 39.0001 16.5 39.0001ZM22.5 36.6001C22.0029 36.6001 21.6 36.1972 21.6 35.7001C21.6 35.2031 22.0029 34.8001 22.5 34.8001C22.997 34.8001 23.4 35.2031 23.4 35.7001C23.4 36.1972 22.997 36.6001 22.5 36.6001ZM27.3 31.8001C26.8029 31.8001 26.4 31.3972 26.4 30.9001C26.4 30.4031 26.8029 30.0001 27.3 30.0001C27.797 30.0001 28.2 30.4031 28.2 30.9001C28.2 31.3972 27.797 31.8001 27.3 31.8001ZM28.5 37.8001C28.0029 37.8001 27.6 37.3972 27.6 36.9001C27.6 36.4031 28.0029 36.0001 28.5 36.0001C28.997 36.0001 29.4 36.4031 29.4 36.9001C29.4 37.3972 28.997 37.8001 28.5 37.8001Z" fill="black"/>
<path d="M10.8 32.4001L22.8 20.4001" stroke="black" stroke-width="1.8" stroke-linecap="square"/>
<path d="M16.8 32.4001L22.8 26.4001" stroke="black" stroke-width="1.8" stroke-linecap="square"/>
<path fill-rule="evenodd" clip-rule="evenodd" d="M19.8 6L40.2 6C42.5196 6 44.4 7.8804 44.4 10.2V13.6584C44.4 14.1129 44.1432 14.5284 43.7366 14.7317L42.6633 15.2683C42.2568 15.4716 42 15.8871 42 16.3416V31.2C42 33.1882 40.3882 34.8 38.4 34.8H30V25.2C30 24.8223 30.1778 24.4666 30.48 24.24L31.92 23.16C32.2221 22.9334 32.4 22.5777 32.4 22.2V18.6C32.4 16.2804 30.5196 14.4 28.2 14.4H16.8C16.1372 14.4 15.6 13.8627 15.6 13.2L15.6 10.2C15.6 7.8804 17.4804 6 19.8 6Z" fill="white" stroke="black" stroke-width="1.8"/>
<path fill-rule="evenodd" clip-rule="evenodd" d="M21.3 11.4C20.803 11.4 20.4 10.997 20.4 10.5C20.4 10.0029 20.803 9.59998 21.3 9.59998C21.7971 9.59998 22.2 10.0029 22.2 10.5C22.2 10.997 21.7971 11.4 21.3 11.4ZM36.9 19.8C36.403 19.8 36 19.397 36 18.9C36 18.4029 36.403 18 36.9 18C37.3971 18 37.8 18.4029 37.8 18.9C37.8 19.397 37.3971 19.8 36.9 19.8ZM35.7 25.8C35.203 25.8 34.8 25.397 34.8 24.9C34.8 24.4029 35.203 24 35.7 24C36.1971 24 36.6 24.4029 36.6 24.9C36.6 25.397 36.1971 25.8 35.7 25.8ZM32.1 29.4C31.603 29.4 31.2 28.997 31.2 28.5C31.2 28.0029 31.603 27.6 32.1 27.6C32.5971 27.6 33 28.0029 33 28.5C33 28.997 32.5971 29.4 32.1 29.4ZM38.1 30.6C37.603 30.6 37.2 30.197 37.2 29.7C37.2 29.2029 37.603 28.8 38.1 28.8C38.5971 28.8 39 29.2029 39 29.7C39 30.197 38.5971 30.6 38.1 30.6ZM34.5 34.2C34.003 34.2 33.6 33.797 33.6 33.3C33.6 32.8029 34.003 32.4 34.5 32.4C34.9971 32.4 35.4 32.8029 35.4 33.3C35.4 33.797 34.9971 34.2 34.5 34.2Z" fill="black"/>
<path d="M32.4 15.6L34.8 13.2" stroke="black" stroke-width="1.8" stroke-linecap="square"/>
</svg>
