<svg width="48" height="52" viewBox="0 0 48 52" fill="none" xmlns="http://www.w3.org/2000/svg">
<circle cx="24" cy="28" r="24" fill="#FC6760"/>
<path fill-rule="evenodd" clip-rule="evenodd" d="M14.4 11.7905H33.6C34.2627 11.7905 34.8 12.3174 34.8 12.9673V15.3208H13.2V12.9673C13.2 12.3174 13.7372 11.7905 14.4 11.7905Z" fill="white" stroke="black" stroke-width="1.8"/>
<path d="M35.9999 15.3208H11.9999C11.3372 15.3208 10.7999 15.8477 10.7999 16.4976V21.2047C10.7999 21.8546 11.3372 22.3814 11.9999 22.3814H35.9999C36.6627 22.3814 37.1999 21.8546 37.1999 21.2047V16.4976C37.1999 15.8477 36.6627 15.3208 35.9999 15.3208Z" fill="white" stroke="black" stroke-width="1.8"/>
<path d="M13.1999 26.3997L14.3999 45.5997H33.5999L34.7999 26.3997L35.9999 24.5997V22.7997H11.9999V23.9997L13.1999 26.3997Z" fill="white"/>
<path d="M14.3133 29.4421H12.5102L12.3216 26.2986L11.7151 25.7038C11.3212 25.3176 11.1 24.7938 11.1 24.2476V23.5583C11.1 22.4209 12.0402 21.4989 13.2 21.4989H34.8C35.9598 21.4989 36.9 22.4209 36.9 23.5583V24.2476C36.9 24.7938 36.6787 25.3176 36.2849 25.7038L35.6783 26.2986L35.4898 29.4421H33.6867L33.9216 25.525L35.0121 24.4556C35.0684 24.4004 35.1 24.3256 35.1 24.2476V23.5583C35.1 23.3958 34.9657 23.2641 34.8 23.2641H13.2C13.0343 23.2641 12.9 23.3958 12.9 23.5583V24.2476C12.9 24.3256 12.9316 24.4004 12.9878 24.4556L14.0783 25.525L14.3133 29.4421ZM15.0192 41.2099L15.232 44.7575C15.2413 44.913 15.3726 45.0344 15.5315 45.0344H32.4685C32.6273 45.0344 32.7586 44.913 32.768 44.7575L32.9808 41.2099H34.7839L34.5649 44.8611C34.4996 45.9496 33.5804 46.7995 32.4685 46.7995H15.5315C14.4196 46.7995 13.5004 45.9496 13.4351 44.8611L13.2161 41.2099H15.0192Z" fill="black"/>
<path fill-rule="evenodd" clip-rule="evenodd" d="M13.9258 29.4425H34.0738C34.7366 29.4425 35.2738 29.9694 35.2738 30.6193C35.2738 30.6584 35.2718 30.6975 35.2679 30.7364L34.3079 40.1506C34.2465 40.7521 33.7303 41.2102 33.1138 41.2102H14.8858C14.2693 41.2102 13.7531 40.7521 13.6918 40.1506L12.7318 30.7364C12.6658 30.0897 13.1469 29.513 13.8064 29.4483C13.8461 29.4445 13.8859 29.4425 13.9258 29.4425Z" stroke="black" stroke-width="1.8"/>
<path d="M15.7211 30.6419L16.5787 40.6214" stroke="black" stroke-width="1.8" stroke-linecap="square"/>
<path d="M19.0629 30.6419L19.5386 40.6214" stroke="black" stroke-width="1.8" stroke-linecap="square"/>
<path d="M22.3781 30.6419L22.5454 40.6214" stroke="black" stroke-width="1.8" stroke-linecap="square"/>
<path d="M25.6019 30.3548L25.6323 40.6219" stroke="black" stroke-width="1.8" stroke-linecap="square"/>
<path d="M29.0006 30.6419L28.6586 40.6214" stroke="black" stroke-width="1.8" stroke-linecap="square"/>
<path d="M32.3052 30.6419L31.5516 40.6214" stroke="black" stroke-width="1.8" stroke-linecap="square"/>
<path d="M21.4025 1.19971L22.3625 1.90577C23.1578 2.49069 23.3189 3.5971 22.7225 4.377C22.6201 4.51081 22.4989 4.62967 22.3625 4.73003C21.3868 5.44764 21.189 6.80503 21.9208 7.76184C21.9575 7.80986 21.9963 7.85636 22.0369 7.90122L22.3625 8.26035" stroke="black" stroke-width="1.8" stroke-linecap="round"/>
<path d="M26.6137 3.55341L27.071 4.02412C27.5831 4.55126 27.5831 5.37981 27.071 5.90695C26.5336 6.46009 26.4496 7.30108 26.8673 7.94597L27.071 8.2605" stroke="black" stroke-width="1.8" stroke-linecap="round"/>
</svg>
