<svg width="48" height="51" viewBox="0 0 48 51" fill="none" xmlns="http://www.w3.org/2000/svg">
<circle cx="24" cy="27" r="24" fill="#FC6760"/>
<path fill-rule="evenodd" clip-rule="evenodd" d="M44.4 38.2002C44.4 37.7563 44.4 37.3563 44.4 37.0002C44.4 25.7336 35.2666 16.6002 24 16.6002C12.7334 16.6002 3.59998 25.7336 3.59998 37.0002C3.59998 37.2101 3.59998 37.6101 3.59998 38.2002H44.4Z" fill="white" stroke="black" stroke-width="1.8"/>
<path d="M45.0001 38.1999H3.00007C2.00596 38.1999 1.20007 39.0058 1.20007 39.9999C1.20007 40.994 2.00596 41.7999 3.00007 41.7999H45.0001C45.9942 41.7999 46.8001 40.994 46.8001 39.9999C46.8001 39.0058 45.9942 38.1999 45.0001 38.1999Z" fill="white" stroke="black" stroke-width="1.8"/>
<path fill-rule="evenodd" clip-rule="evenodd" d="M28.7578 17.1618C28.4457 14.8125 26.4345 13 23.9999 13C21.5618 13 19.5483 14.8177 19.2406 17.1718C23.9999 16.3693 23.9999 16.3693 28.7578 17.1618Z" fill="white" stroke="black" stroke-width="1.8"/>
<path d="M9.37036 28.7445C10.4714 27.0655 11.3642 25.8542 12.0486 25.1104C12.733 24.3666 13.9476 23.4011 15.6925 22.214" stroke="black" stroke-width="1.8" stroke-linecap="round"/>
<path d="M8.40002 32.1999H8.45715" stroke="black" stroke-width="1.8" stroke-linecap="round"/>
<path d="M22.9341 1C24.0541 1.83027 24.6141 2.67027 24.6141 3.52C24.6141 4.79459 23.1741 5.92705 23.1741 6.88C23.1741 7.5153 23.4141 8.3553 23.8941 9.4" stroke="black" stroke-width="1.8" stroke-linecap="round"/>
<path opacity="0.9" d="M18.8348 5.83832C18.2283 6.62239 17.925 7.41183 17.925 8.20663C17.925 9.00142 18.2283 9.7993 18.8348 10.6002" stroke="black" stroke-width="1.8" stroke-linecap="round"/>
<path opacity="0.9" d="M27.9778 9.39978C28.3958 9.64194 28.6049 10.0419 28.6049 10.5998C28.6049 11.1576 28.5483 11.5576 28.4351 11.7998" stroke="black" stroke-width="1.8" stroke-linecap="round"/>
</svg>
