<svg width="48" height="49" viewBox="0 0 48 49" fill="none" xmlns="http://www.w3.org/2000/svg">
<circle cx="24" cy="25" r="24" fill="#FC6760"/>
<path fill-rule="evenodd" clip-rule="evenodd" d="M21.9629 10.4932C21.0981 11.1197 19.8965 11.6179 18.2754 11.9978C13.6457 13.0826 11.2083 15.426 10.8108 19.1522C13.9321 17.3419 17.1948 16.6956 20.5694 17.2309C21.5345 17.384 22.1339 17.5798 23.185 18.019C23.2166 18.0323 23.2166 18.0323 23.248 18.0454C24.9544 18.7586 26.0266 18.9549 28.7576 18.7821C32.0968 18.5709 34.8283 17.8914 36.9575 16.7554C34.2251 12.7406 31.5429 9.99987 28.9332 8.52118C28.8334 10.5188 27.1581 12.1082 25.1061 12.1082C23.8194 12.1082 22.6614 11.4783 21.9629 10.4932Z" fill="white" stroke="black" stroke-width="1.8"/>
<path fill-rule="evenodd" clip-rule="evenodd" d="M8.0437 26.1146C10.8535 24.1655 15.5883 23.5134 22.2329 24.0652C26.6086 24.4285 29.756 24.2179 33.0838 23.578C33.2174 23.5523 35.3688 23.1103 35.9079 23.0234C36.881 22.8667 37.6302 22.8397 38.3631 22.9694C39.7295 23.2113 40.8745 23.9112 41.7998 25.0434L41.6871 21.9191C41.6678 21.3841 41.5603 20.8557 41.3689 20.3547C40.3938 17.8026 37.5037 16.5128 34.9138 17.4736C33.0472 18.1662 31.3973 18.5927 29.9584 18.7498C27.3947 19.0296 25.9065 18.8103 23.5564 18.0539C23.4097 18.0066 23.4097 18.0066 23.264 17.9596C20.7124 17.1364 19.1585 16.9327 16.0347 17.3287C11.0643 17.9589 8.43329 20.811 8.0437 26.1146Z" fill="white" stroke="black" stroke-width="1.8"/>
<path fill-rule="evenodd" clip-rule="evenodd" d="M6.24605 32.0212C6.6 30.7997 7.68714 30.231 8.87425 30.231C10.0664 30.231 10.9705 30.6714 12.1173 31.5852C12.1458 31.6079 12.189 31.6428 12.2401 31.6845C13.8956 29.4858 15.8454 28.3322 18.071 28.3322C19.9331 28.3322 21.2636 29.0028 22.6054 30.2743C22.4961 30.1707 23.6072 31.2724 23.8193 31.4333C23.9613 31.541 24.0246 31.5676 24.0408 31.5676C24.0408 31.5676 24.1053 31.5378 24.2613 31.4043C24.451 31.2419 25.359 30.2762 25.3386 30.2968C26.712 28.9029 28.1061 28.2071 30.1136 28.3346C31.9401 28.4506 33.1083 29.0902 34.2865 30.3003C34.4066 30.4236 34.7931 30.8356 34.8681 30.913C35.2975 31.3559 35.5445 31.5237 35.8577 31.5598C35.9533 31.4882 36.0597 31.3942 36.38 31.1057C37.1716 30.4063 37.8022 30.0502 38.6928 30.0502C39.4202 30.0502 40.4231 30.3478 41.7763 30.9425L41.9884 27.984C42.0201 27.5418 41.9874 27.0973 41.8913 26.6642C41.3351 24.1569 38.8215 22.5686 36.277 23.1167C33.1136 23.798 30.6289 24.2378 28.8119 24.4362C26.3378 24.7063 24.7514 24.6697 22.1383 24.4041C21.9712 24.387 21.9712 24.387 21.8048 24.37C18.6839 24.0506 16.9433 24.0256 13.7236 24.4338C8.50537 25.0954 6.1256 27.5259 6.24605 32.0212Z" fill="white" stroke="black" stroke-width="1.8"/>
<path fill-rule="evenodd" clip-rule="evenodd" d="M11.9078 32.7281L15.2243 45.7998H23.907V32.8406L23.8862 32.7613C23.3078 30.555 21.5295 28.8503 19.2754 28.3413C16.0099 27.6039 12.7558 29.5594 11.9078 32.7281Z" fill="white" stroke="black" stroke-width="1.8"/>
<path fill-rule="evenodd" clip-rule="evenodd" d="M6 32.6769L9.32929 45.7994H15.1701L11.8932 32.8726L11.8542 32.6421C11.6349 31.3456 10.5638 30.353 9.23711 30.2168C7.65735 30.0547 6.23834 31.1465 6 32.6769Z" fill="white" stroke="black" stroke-width="1.8"/>
<path fill-rule="evenodd" clip-rule="evenodd" d="M24.0249 32.8407V45.8H32.7076L36.024 32.7283C35.4535 30.6006 33.7602 28.9343 31.5876 28.3812C28.2774 27.5386 24.9008 29.4997 24.0457 32.7615L24.0249 32.8407Z" fill="white" stroke="black" stroke-width="1.8"/>
<path fill-rule="evenodd" clip-rule="evenodd" d="M32.7621 45.7991H38.6027L41.932 32.6766C41.7382 31.4358 40.7569 30.4487 39.4894 30.2405C37.8744 29.9753 36.347 31.0504 36.0778 32.6418L36.0388 32.8723L36.0244 32.9404L32.7621 45.7991Z" fill="white" stroke="black" stroke-width="1.8"/>
<path d="M25.145 12.1077C27.2612 12.1077 28.9768 10.4172 28.9768 8.33193C28.9768 6.24662 27.2612 4.55615 25.145 4.55615C23.0288 4.55615 21.3132 6.24662 21.3132 8.33193C21.3132 10.4172 23.0288 12.1077 25.145 12.1077Z" fill="white" stroke="black" stroke-width="1.8"/>
<path fill-rule="evenodd" clip-rule="evenodd" d="M26.4417 0.199707H28.0535L25.6955 4.84681H23.9658L26.4417 0.199707Z" fill="black"/>
</svg>
