<svg width="48" height="48" viewBox="0 0 48 48" fill="none" xmlns="http://www.w3.org/2000/svg">
<circle cx="24" cy="24" r="24" fill="#FC6760"/>
<path d="M24 43C34.4934 43 43 34.4934 43 24C43 13.5066 34.4934 5 24 5C13.5066 5 5 13.5066 5 24C5 34.4934 13.5066 43 24 43Z" fill="white" stroke="black" stroke-width="1.5"/>
<path d="M24 40C32.8366 40 40 32.8366 40 24C40 15.1634 32.8366 8 24 8C15.1634 8 8 15.1634 8 24C8 32.8366 15.1634 40 24 40Z" stroke="black" stroke-width="1.5"/>
<path d="M24 26C25.1046 26 26 25.1046 26 24C26 22.8954 25.1046 22 24 22C22.8954 22 22 22.8954 22 24C22 25.1046 22.8954 26 24 26Z" stroke="black" stroke-width="1.5"/>
<path d="M24 14.5V22" stroke="black" stroke-width="1.5" stroke-linecap="round" stroke-linejoin="round"/>
<path d="M25.8945 24.6426C25.9629 24.4409 26 24.2248 26 24C26 23.3848 25.7223 22.8346 25.2854 22.4677L25.7531 22L32.5597 30.8408C32.713 31.0399 32.6947 31.3218 32.5171 31.4994L31.4994 32.5171C31.3218 32.6947 31.0399 32.713 30.8408 32.5597L22 25.7531L22.4677 25.2854C22.8346 25.7223 23.3848 26 24 26C24.2248 26 24.4409 25.9629 24.6426 25.8945L30.0838 30.0838L25.8945 24.6426Z" fill="black"/>
<path fill-rule="evenodd" clip-rule="evenodd" d="M24 12C23.4477 12 23 11.5523 23 11C23 10.4477 23.4477 10 24 10C24.5523 10 25 10.4477 25 11C25 11.5523 24.5523 12 24 12ZM30 13.6077C29.5217 13.3316 29.3578 12.72 29.634 12.2417C29.9101 11.7634 30.5217 11.5995 31 11.8756C31.4783 12.1518 31.6422 12.7634 31.366 13.2417C31.0899 13.72 30.4783 13.8838 30 13.6077ZM34.3923 18C34.1162 17.5217 34.28 16.9101 34.7583 16.634C35.2366 16.3578 35.8482 16.5217 36.1244 17C36.4005 17.4783 36.2366 18.0899 35.7583 18.366C35.28 18.6422 34.6684 18.4783 34.3923 18ZM36 24C36 23.4477 36.4477 23 37 23C37.5523 23 38 23.4477 38 24C38 24.5523 37.5523 25 37 25C36.4477 25 36 24.5523 36 24ZM34.3923 30C34.6684 29.5217 35.28 29.3578 35.7583 29.634C36.2366 29.9101 36.4005 30.5217 36.1244 31C35.8482 31.4783 35.2366 31.6422 34.7583 31.366C34.28 31.0899 34.1162 30.4783 34.3923 30ZM30 34.3923C30.4783 34.1162 31.0899 34.28 31.366 34.7583C31.6422 35.2366 31.4783 35.8482 31 36.1244C30.5217 36.4005 29.9101 36.2366 29.634 35.7583C29.3578 35.28 29.5217 34.6684 30 34.3923ZM24 36C24.5523 36 25 36.4477 25 37C25 37.5523 24.5523 38 24 38C23.4477 38 23 37.5523 23 37C23 36.4477 23.4477 36 24 36ZM18 34.3923C18.4783 34.6684 18.6422 35.28 18.366 35.7583C18.0899 36.2366 17.4783 36.4005 17 36.1244C16.5217 35.8482 16.3578 35.2366 16.634 34.7583C16.9101 34.28 17.5217 34.1162 18 34.3923ZM13.6077 30C13.8838 30.4783 13.72 31.0899 13.2417 31.366C12.7634 31.6422 12.1518 31.4783 11.8756 31C11.5995 30.5217 11.7634 29.9101 12.2417 29.634C12.72 29.3578 13.3316 29.5217 13.6077 30ZM12 24C12 24.5523 11.5523 25 11 25C10.4477 25 10 24.5523 10 24C10 23.4477 10.4477 23 11 23C11.5523 23 12 23.4477 12 24ZM13.6077 18C13.3316 18.4783 12.72 18.6422 12.2417 18.366C11.7634 18.0899 11.5995 17.4783 11.8756 17C12.1518 16.5217 12.7634 16.3578 13.2417 16.634C13.72 16.9101 13.8838 17.5217 13.6077 18ZM18 13.6077C17.5217 13.8838 16.9101 13.72 16.634 13.2417C16.3578 12.7634 16.5217 12.1518 17 11.8756C17.4783 11.5995 18.0899 11.7634 18.366 12.2417C18.6422 12.72 18.4783 13.3316 18 13.6077Z" fill="black"/>
</svg>
