<svg width="48" height="48" viewBox="0 0 48 48" fill="none" xmlns="http://www.w3.org/2000/svg">
<circle cx="24" cy="24" r="24" fill="#FC6760"/>
<path fill-rule="evenodd" clip-rule="evenodd" d="M24 42.0343C36.7515 42.0343 47.0886 31.8176 47.0886 19.2147C37.3671 24.0189 10.6329 24.0189 0.911377 19.2147C0.911377 31.8176 11.2485 42.0343 24 42.0343Z" fill="white" stroke="black" stroke-width="1.8"/>
<path fill-rule="evenodd" clip-rule="evenodd" d="M15.4937 40.5171C18.4057 41.5286 21.2455 42.0343 24.0129 42.0343C26.7803 42.0343 29.6115 41.5286 32.5064 40.5171L32.5064 41.5952C32.5063 43.3912 31.1681 44.9129 29.3687 45.1631C27.9227 45.3642 26.1332 45.5006 24 45.5724C21.8585 45.6444 20.0633 45.5763 18.6145 45.368L18.6145 45.368C16.8226 45.1104 15.4937 43.592 15.4937 41.8024V40.5171Z" fill="white" stroke="black" stroke-width="1.8"/>
<path d="M46.2001 18.0001C46.2001 19.9883 36.5921 22.2001 24 22.2001C11.408 22.2001 1.80005 19.9883 1.80005 18.0001C1.80005 16.0119 11.408 13.8001 24 13.8001C36.5921 13.8001 46.2001 16.0119 46.2001 18.0001Z" fill="white"/>
<path d="M32.1088 12.598L30.9384 14.3332C28.7295 14.1873 26.3945 14.1104 24 14.1104C17.8524 14.1104 12.0969 14.617 7.86165 15.4982C4.02019 16.2975 1.82278 17.3785 1.82278 18.0138C1.82278 18.6491 4.02019 19.7301 7.86165 20.5294C12.0969 21.4106 17.8524 21.9172 24 21.9172C30.1476 21.9172 35.9031 21.4106 40.1384 20.5294C43.9798 19.7301 46.1772 18.6491 46.1772 18.0138C46.1772 17.3785 43.9798 16.2975 40.1384 15.4982C39.1218 15.2867 38.0176 15.0968 36.8414 14.9302L38.452 13.3385C44.2839 14.3114 48 15.9313 48 18.0138C48 21.523 37.4476 23.7187 24 23.7187C10.5524 23.7187 0 21.523 0 18.0138C0 14.5046 10.5524 12.3089 24 12.3089C26.8582 12.3089 29.5857 12.4081 32.1088 12.598Z" fill="black"/>
<path d="M3.91162 20.5283C8.17748 18.8518 14.8611 18.0135 23.9625 18.0135C33.0639 18.0135 39.7349 18.8518 43.9755 20.5283" stroke="black" stroke-width="1.8"/>
<path fill-rule="evenodd" clip-rule="evenodd" d="M44.2673 4.09787C45.2168 5.03553 45.2168 6.55578 44.2673 7.49345L28.5 22.6997L22 22.6997L40.8287 4.09787C41.7782 3.16021 43.3177 3.16021 44.2673 4.09787Z" fill="white" stroke="black" stroke-width="1.8"/>
</svg>
