<svg width="32" height="32" viewBox="0 0 32 32" fill="none" xmlns="http://www.w3.org/2000/svg">
<rect x="0.5" y="5.5" width="31" height="21" rx="2.5" stroke="#B3B3B3"/>
<path fill-rule="evenodd" clip-rule="evenodd" d="M16.9804 8.05891C17.0589 7.98036 17.1863 7.98036 17.2648 8.05891L19.4855 10.2796C19.5641 10.3582 19.5641 10.4855 19.4855 10.564L18.9614 11.0882L22.32 11.0882C22.4311 11.0882 22.5212 11.1783 22.5212 11.2893V14.4299C22.5212 14.541 22.4311 14.631 22.32 14.631H21.5763L23.9412 16.9959C24.0197 17.0744 24.0197 17.2018 23.9412 17.2803L21.7204 19.501C21.6419 19.5796 21.5146 19.5796 21.436 19.501L20.9122 18.9772V22.32C20.9122 22.4311 20.8221 22.5212 20.7111 22.5212H17.586C17.4749 22.5212 17.3849 22.4311 17.3849 22.32V21.5588L15.0088 23.945C14.9303 24.0239 14.8027 24.024 14.724 23.9453L12.5143 21.7356C12.4359 21.6572 12.4357 21.53 12.514 21.4515L13.0509 20.9122H9.69588C9.58481 20.9122 9.49476 20.8221 9.49476 20.7111L9.49476 17.586C9.49476 17.4749 9.58481 17.3849 9.69588 17.3849H10.435L8.05891 15.0088C7.98036 14.9302 7.98036 14.8029 8.05891 14.7243L10.2687 12.5146C10.3472 12.436 10.4746 12.436 10.5531 12.5146L11.1037 13.0652V9.69588C11.1037 9.58481 11.1938 9.49476 11.3049 9.49476H14.4299C14.541 9.49476 14.6311 9.58481 14.6311 9.69588V10.4082L16.9804 8.05891ZM17.3849 19.071L18.3749 20.3241L17.3848 19.3494V19.3487L16.1358 18.0997C16.0572 18.0211 15.9296 18.0212 15.8511 18.1001L14.8051 19.1505L14.6194 20.7346L14.6085 19.3452L14.6156 19.3381V17.586C14.6156 17.4749 14.5255 17.3849 14.4145 17.3849H12.9093L11.6761 18.3593L12.6507 17.3692H12.656L13.8896 16.1355C13.9682 16.057 13.9682 15.9297 13.8896 15.8511L12.8437 14.8052L11.2583 14.6154H12.6507L12.8099 14.7714L12.6541 14.6156H14.4299C14.541 14.6156 14.6311 14.5255 14.6311 14.4145V12.6671L15.8646 13.9006C15.9431 13.9791 16.0704 13.9791 16.149 13.9006L17.2048 12.8448L17.389 11.2737L17.3998 12.6498L17.4003 12.6492V14.4299C17.4003 14.541 17.4904 14.631 17.6015 14.631H19.0792L20.2933 13.6717L19.3186 14.6619H19.3177L18.0995 15.8801C18.0209 15.9586 18.0209 16.086 18.0995 16.1645L19.1256 17.1907L19.1174 17.1823L20.7022 17.38L19.3157 17.3807L19.3199 17.3849H17.586C17.4749 17.3849 17.3849 17.4749 17.3849 17.586V19.071ZM13.6408 11.6915L14.6309 12.9446V12.6661L13.6408 11.6915Z" fill="url(#paint0_radial)"/>
<path opacity="0.3" fill-rule="evenodd" clip-rule="evenodd" d="M13.6237 11.4498L14.6215 9.67065V10.4519L13.6237 11.4498ZM17.53 11.0988L19.4936 10.5464L18.9412 11.0988H17.53ZM22.3568 14.6445L20.5777 13.6466L21.5755 14.6445H22.3568ZM18.3731 20.562L17.3753 22.3411V21.5599L18.3731 20.562ZM12.4865 21.4797L14.4501 20.9273H13.0389L12.4865 21.4797ZM11.419 18.3884L9.63989 17.3905H10.4212L11.419 18.3884ZM10.5467 12.5173L11.0991 14.4809V13.0697L10.5467 12.5173ZM20.912 17.5763L21.4645 19.5399L20.912 18.9874V17.5763Z" fill="#010101"/>
<defs>
<radialGradient id="paint0_radial" cx="0" cy="0" r="1" gradientUnits="userSpaceOnUse" gradientTransform="translate(16 16.0021) rotate(90) scale(8.00211 8)">
<stop stop-color="white"/>
<stop offset="0.46875" stop-color="#3EB6EB"/>
<stop offset="1" stop-color="#005C97"/>
</radialGradient>
</defs>
</svg>
