<svg width="24" height="24" viewBox="0 0 24 24" fill="none" xmlns="http://www.w3.org/2000/svg">
<path fill-rule="evenodd" clip-rule="evenodd" d="M0 10C0 9.44772 0.447715 9 1 9H23C23.5523 9 24 9.44772 24 10C24 10.5523 23.5523 11 23 11H22L20.5729 21.2751C20.4356 22.2639 19.5902 23 18.5919 23H5.40809C4.40983 23 3.56443 22.2639 3.4271 21.2751L2 11H1C0.447716 11 0 10.5523 0 10ZM20 11H4L5.21762 20.1322C5.28386 20.629 5.70765 21 6.20885 21H17.7911C18.2924 21 18.7161 20.629 18.7824 20.1322L20 11Z" fill="white"/>
<rect x="7" y="13" width="2" height="6" rx="1" fill="white"/>
<rect x="15" y="13" width="2" height="6" rx="1" fill="white"/>
<rect x="11" y="13" width="2" height="6" rx="1" fill="white"/>
<path fill-rule="evenodd" clip-rule="evenodd" d="M19.0005 8C19.0005 4.13401 15.8665 1 12.0005 1C8.13452 1 5.00051 4.13401 5.00051 8H7.00051C7.00051 5.23858 9.23909 3 12.0005 3C14.7619 3 17.0005 5.23858 17.0005 8H19.0005Z" fill="white"/>
</svg>
