<svg width="32" height="32" viewBox="0 0 32 32" fill="none" xmlns="http://www.w3.org/2000/svg">
<path fill-rule="evenodd" clip-rule="evenodd" d="M12 6C12 5.44772 12.4477 5 13 5H19C19.5523 5 20 5.44772 20 6V8H25C25.5523 8 26 8.44772 26 9C26 9.55228 25.5523 10 25 10H24V25C24 26.1046 23.1046 27 22 27H10C8.89543 27 8 26.1046 8 25V10H7C6.44772 10 6 9.55228 6 9C6 8.44772 6.44772 8 7 8H12V6ZM14 8H18V7H14V8ZM10 10H22V24C22 24.5523 21.5523 25 21 25H11C10.4477 25 10 24.5523 10 24V10ZM13 22V13H15V22H13ZM19 22V13H17V22H19Z" fill="black"/>
</svg>
