<svg width="32" height="32" viewBox="0 0 32 32" fill="none" xmlns="http://www.w3.org/2000/svg">
<path d="M8 11H13V13H8V11Z" fill="black"/>
<path d="M13 15H8V17H13V15Z" fill="black"/>
<path d="M8 19H13V21H8V19Z" fill="black"/>
<path d="M24 11H19V13H24V11Z" fill="black"/>
<path d="M19 15H24V17H19V15Z" fill="black"/>
<path d="M24 19H19V21H24V19Z" fill="black"/>
<path fill-rule="evenodd" clip-rule="evenodd" d="M4 6C4 5.44772 4.44772 5 5 5H12.0263C12.6712 5 13.3119 5.10397 13.9237 5.3079L15.6838 5.89459C15.889 5.96301 16.111 5.96301 16.3162 5.89459L18.0763 5.3079C18.6881 5.10397 19.3288 5 19.9737 5H27C27.5523 5 28 5.44772 28 6V25C28 25.5523 27.5523 26 27 26H19.9737C19.3288 26 18.6881 26.104 18.0763 26.3079L16.6325 26.85C16 27.0608 16 27.0508 15.3675 26.84L13.9237 26.3079C13.3119 26.104 12.6712 26 12.0263 26H5C4.44772 26 4 25.5523 4 25V6ZM6 7H12.0263C12.6712 7 13.3119 7.10397 13.9237 7.3079L15 7.66667V24.6667L13.9237 24.3079C13.3119 24.104 12.6712 24 12.0263 24H6V7ZM17 24.6667L18.0763 24.3079C18.6881 24.104 19.3288 24 19.9737 24H26V7H19.9737C19.3288 7 18.6881 7.10397 18.0763 7.3079L17 7.66667V24.6667Z" fill="black"/>
</svg>
