<svg width="32" height="32" viewBox="0 0 32 32" fill="none" xmlns="http://www.w3.org/2000/svg">
<rect x="0.5" y="5.5" width="31" height="21" rx="2.5" stroke="#B3B3B3"/>
<path fill-rule="evenodd" clip-rule="evenodd" d="M24 13C24 15.7614 21.7614 18 19 18C16.2386 18 14 15.7614 14 13C14 10.2386 16.2386 8 19 8C21.7614 8 24 10.2386 24 13Z" fill="#F79F1A"/>
<path fill-rule="evenodd" clip-rule="evenodd" d="M18 13C18 15.7614 15.7614 18 13 18C10.2386 18 8 15.7614 8 13C8 10.2386 10.2386 8 13 8C15.7614 8 18 10.2386 18 13Z" fill="#EA001B"/>
<path fill-rule="evenodd" clip-rule="evenodd" d="M16.0072 9C14.6628 9.93019 13.7998 11.3757 13.7998 12.9994C13.7998 14.6232 14.6628 16.0698 16.0072 17C17.3517 16.0698 18.2147 14.6232 18.2147 12.9994C18.2147 11.3757 17.3517 9.93019 16.0072 9Z" fill="#FF5F01"/>
<path fill-rule="evenodd" clip-rule="evenodd" d="M27.5293 22.0981V21H27.9998V23.9417H27.5293V23.68C27.0886 24.2888 25.7486 23.993 25.7486 22.889C25.7486 21.8078 27.041 21.4779 27.5293 22.0981ZM26.231 22.889C26.231 23.2589 26.493 23.5547 26.8979 23.5547C27.2912 23.5547 27.565 23.276 27.565 22.889C27.565 22.519 27.2911 22.2233 26.8979 22.2233C26.4931 22.2233 26.231 22.5191 26.231 22.889ZM9.68737 22.0981V21.8477H10.1579V23.9417H9.68737V23.68C9.52659 23.8791 9.30034 23.9873 8.99057 23.9873C8.37721 23.9873 7.90674 23.5263 7.90674 22.889C7.90674 22.2574 8.37714 21.7908 8.99057 21.7908C9.30034 21.7908 9.52659 21.9103 9.68737 22.0981ZM8.38922 22.889C8.38922 23.2589 8.63329 23.5547 9.05619 23.5547C9.44322 23.5547 9.70527 23.276 9.70527 22.889C9.69938 22.519 9.44322 22.2233 9.05619 22.2233C8.63329 22.2233 8.38922 22.5191 8.38922 22.889ZM15.4702 23.071H17.1079C17.1079 22.1492 16.6672 21.7849 16.0716 21.7849C15.4405 21.7849 14.9878 22.2346 14.9878 22.8832C14.9878 24.0497 16.3337 24.2433 17.0007 23.6913L16.7745 23.3498C16.3099 23.7141 15.6071 23.6799 15.4702 23.071ZM16.0537 22.2063C16.3633 22.2063 16.5719 22.3769 16.6255 22.7012H15.488C15.5357 22.4053 15.7322 22.2063 16.0537 22.2063ZM23.1045 22.0982V21.8478H23.5929V23.9419H23.1045V23.6801C22.6579 24.2946 21.3237 23.9816 21.3237 22.8891C21.3237 21.825 22.6102 21.4722 23.1045 22.0982ZM21.8241 22.8891C21.8241 23.2589 22.0683 23.5547 22.4732 23.5547C22.8781 23.5547 23.1402 23.276 23.1402 22.8891C23.1402 22.519 22.8781 22.2234 22.4732 22.2234C22.0683 22.2234 21.8241 22.5191 21.8241 22.8891ZM7.48386 22.6272C7.48386 22.132 7.14448 21.8078 6.60846 21.7908C6.33448 21.7908 6.04275 21.8705 5.84611 22.1605C5.70315 21.9274 5.45908 21.7908 5.11955 21.7908C4.89322 21.7908 4.66697 21.8705 4.48837 22.0981V21.8477H4V23.936H4.48837C4.48837 23.7607 4.48442 23.5969 4.48076 23.4455C4.46198 22.668 4.4511 22.2177 5.02432 22.2177C5.5393 22.2177 5.53212 22.6347 5.51799 23.4551C5.51545 23.6024 5.51269 23.7628 5.51269 23.936H5.98317C5.98317 23.7675 5.97927 23.6084 5.97563 23.4603C5.9568 22.6933 5.94513 22.2177 6.51912 22.2177C7.03391 22.2177 7.02692 22.6263 7.0128 23.4505C7.01026 23.5988 7.00749 23.7607 7.00749 23.936H7.49579V22.6273H7.48386V22.6272ZM11.6977 22.6718C12.0884 22.728 12.5698 22.7973 12.5698 23.3043C12.5698 24.0726 11.2954 24.1635 10.6284 23.7313L10.8369 23.3727C11.2656 23.6572 12.0696 23.6857 12.0696 23.3272C12.0696 23.1723 11.8444 23.1367 11.577 23.0944C11.1864 23.0327 10.7058 22.9567 10.7058 22.4737C10.7058 21.6656 11.9445 21.6599 12.5044 22.007L12.3078 22.3769C11.9148 22.1663 11.2061 22.115 11.2061 22.4394C11.2061 22.6011 11.4308 22.6334 11.6977 22.6718ZM14.6779 23.8335L14.5469 23.4465C14.3206 23.5659 13.8204 23.6968 13.8204 23.2131V22.2686H14.6005V21.8476H13.8204V21.2104H13.332V21.8476H12.8794V22.2629H13.332V23.2131C13.332 24.2147 14.3623 24.0325 14.6779 23.8335ZM18.0842 22.098C18.2986 21.7451 18.7155 21.7338 18.9893 21.8476L18.8465 22.28C18.65 22.1833 18.0842 22.0979 18.0842 22.758V23.9359H17.5957V21.8476H18.0842V22.098ZM19.621 22.8891C19.621 22.2405 20.3119 22.0298 20.8538 22.4112L21.08 22.0413C20.3893 21.5235 19.1328 21.808 19.1328 22.8949C19.1328 24.0215 20.4667 24.2491 21.08 23.7483L20.8538 23.3785C20.3059 23.7483 19.621 23.5265 19.621 22.8891ZM24.6946 22.0981C24.9448 21.6827 25.4569 21.7794 25.5999 21.8477L25.4569 22.2802C25.2306 22.172 24.6946 22.132 24.6946 22.7581V23.9361H24.2241V21.8477H24.6946V22.0981Z" fill="black"/>
</svg>
