<svg width="32" height="32" viewBox="0 0 32 32" fill="none" xmlns="http://www.w3.org/2000/svg">
<rect x="0.5" y="5.5" width="31" height="21" rx="2.5" stroke="#B3B3B3"/>
<path fill-rule="evenodd" clip-rule="evenodd" d="M24 13C24 15.7614 21.7614 18 19 18C16.2386 18 14 15.7614 14 13C14 10.2386 16.2386 8 19 8C21.7614 8 24 10.2386 24 13Z" fill="#0099DF"/>
<path fill-rule="evenodd" clip-rule="evenodd" d="M18 13C18 15.7614 15.7614 18 13 18C10.2386 18 8 15.7614 8 13C8 10.2386 10.2386 8 13 8C15.7614 8 18 10.2386 18 13Z" fill="#EB001B"/>
<path fill-rule="evenodd" clip-rule="evenodd" d="M16.0072 9C14.6628 9.93019 13.7998 11.3757 13.7998 12.9994C13.7998 14.6232 14.6628 16.0698 16.0072 17C17.3517 16.0698 18.2147 14.6232 18.2147 12.9994C18.2147 11.3757 17.3517 9.93019 16.0072 9Z" fill="#6C6BBD"/>
<path d="M22.0657 21.6252C22.1619 21.6252 22.3002 21.644 22.4059 21.6865L22.2587 22.1471C22.1577 22.1046 22.0568 22.0906 21.96 22.0906C21.6477 22.0906 21.4916 22.2972 21.4916 22.6684V23.9284H21.0137V21.6817H21.4869V21.9544C21.6109 21.757 21.7902 21.6252 22.0657 21.6252ZM20.3002 22.1282H19.5195V23.1435C19.5195 23.3689 19.5973 23.5195 19.8365 23.5195C19.9606 23.5195 20.1167 23.477 20.2587 23.3926L20.3964 23.8106C20.245 23.9188 20.0063 23.9849 19.7997 23.9849C19.2345 23.9849 19.0373 23.6745 19.0373 23.1526V22.1282H18.5915V21.6817H19.0373V21H19.5195V21.6817H20.3002V22.1282ZM14.1861 22.6076C14.2371 22.2832 14.4295 22.0621 14.7697 22.0621C15.0773 22.0621 15.275 22.2595 15.3254 22.6076H14.1861ZM15.8218 22.8051C15.817 22.1046 15.3943 21.6252 14.7787 21.6252C14.1356 21.6252 13.6856 22.1046 13.6856 22.8051C13.6856 23.519 14.154 23.9844 14.8113 23.9844C15.142 23.9844 15.4448 23.8999 15.7114 23.6697L15.4769 23.3076C15.2934 23.4582 15.0589 23.5427 14.8386 23.5427C14.531 23.5427 14.2508 23.3969 14.1819 22.9928H15.8123C15.817 22.9315 15.8218 22.8707 15.8218 22.8051ZM17.9206 22.2552C17.7876 22.1702 17.5168 22.0621 17.2366 22.0621C16.9748 22.0621 16.8186 22.161 16.8186 22.3257C16.8186 22.4758 16.9837 22.5183 17.1903 22.5463L17.4154 22.5791C17.8933 22.6501 18.1824 22.8567 18.1824 23.2516C18.1824 23.6793 17.8149 23.9849 17.1814 23.9849C16.8228 23.9849 16.4921 23.8908 16.2303 23.6933L16.4553 23.3124C16.6162 23.4394 16.8554 23.5475 17.1861 23.5475C17.5121 23.5475 17.6866 23.4491 17.6866 23.2747C17.6866 23.1483 17.5626 23.0773 17.3007 23.0402L17.0757 23.0074C16.5841 22.9363 16.3176 22.7109 16.3176 22.3445C16.3176 21.898 16.6761 21.6252 17.2319 21.6252C17.581 21.6252 17.898 21.7053 18.1272 21.8603L17.9206 22.2552ZM23.8118 22.0895C23.7135 22.0895 23.6225 22.1072 23.5379 22.1422C23.4537 22.1777 23.3807 22.2272 23.3191 22.2907C23.2576 22.3542 23.2093 22.4306 23.174 22.5194C23.1388 22.6081 23.1215 22.7061 23.1215 22.8126C23.1215 22.9197 23.1388 23.017 23.174 23.1058C23.2093 23.1946 23.2576 23.271 23.3191 23.3345C23.3807 23.398 23.4537 23.4475 23.5379 23.483C23.6225 23.5185 23.7135 23.5357 23.8118 23.5357C23.9101 23.5357 24.0016 23.5185 24.0857 23.483C24.1703 23.4475 24.244 23.398 24.3055 23.3345C24.368 23.271 24.4164 23.1946 24.4522 23.1058C24.4874 23.017 24.5047 22.9197 24.5047 22.8126C24.5047 22.7061 24.4874 22.6081 24.4522 22.5194C24.4164 22.4306 24.368 22.3542 24.3055 22.2907C24.244 22.2272 24.1703 22.1777 24.0857 22.1422C24.0016 22.1072 23.9101 22.0895 23.8118 22.0895ZM23.8118 21.6252C23.9821 21.6252 24.1399 21.6553 24.285 21.7161C24.4301 21.7764 24.5557 21.8598 24.6614 21.9657C24.7676 22.0717 24.8502 22.1971 24.9101 22.3413C24.97 22.486 25 22.6431 25 22.8126C25 22.9821 24.97 23.1392 24.9101 23.2839C24.8502 23.4281 24.7676 23.554 24.6614 23.66C24.5557 23.766 24.4301 23.8488 24.285 23.9096C24.1399 23.9699 23.9821 24 23.8118 24C23.6414 24 23.4837 23.9699 23.3386 23.9096C23.1935 23.8488 23.0689 23.766 22.9637 23.66C22.8586 23.554 22.776 23.4281 22.7161 23.2839C22.6561 23.1392 22.6262 22.9821 22.6262 22.8126C22.6262 22.6431 22.6561 22.486 22.7161 22.3413C22.776 22.1971 22.8586 22.0717 22.9637 21.9657C23.0689 21.8598 23.1935 21.7764 23.3386 21.7161C23.4837 21.6553 23.6414 21.6252 23.8118 21.6252ZM11.3954 22.8051C11.3954 22.4102 11.6483 22.0857 12.0615 22.0857C12.4564 22.0857 12.7229 22.3962 12.7229 22.8051C12.7229 23.214 12.4564 23.5239 12.0615 23.5239C11.6483 23.5239 11.3954 23.2 11.3954 22.8051ZM13.173 22.8051V21.6817H12.6956V21.9544C12.5436 21.7522 12.3144 21.6252 12.0021 21.6252C11.3864 21.6252 10.9043 22.1185 10.9043 22.8051C10.9043 23.491 11.3864 23.9849 12.0021 23.9849C12.3144 23.9849 12.5436 23.858 12.6956 23.6557V23.9284H13.173V22.8051ZM10.4816 23.9284V22.5183C10.4816 21.9873 10.1509 21.63 9.6183 21.6252C9.33807 21.6203 9.04837 21.7096 8.84648 22.0249C8.69506 21.7758 8.45584 21.6252 8.1204 21.6252C7.88644 21.6252 7.65668 21.6957 7.47739 21.9588V21.6817H7V23.9284H7.48212V22.6829C7.48212 22.2929 7.69348 22.0857 8.01945 22.0857C8.33649 22.0857 8.49737 22.2972 8.49737 22.6781V23.9284H8.9795V22.6829C8.9795 22.2929 9.20032 22.0857 9.51682 22.0857C9.84332 22.0857 9.99947 22.2972 9.99947 22.6781V23.9284H10.4816Z" fill="black"/>
</svg>
