<svg width="96" height="96" viewBox="0 0 96 96" fill="none" xmlns="http://www.w3.org/2000/svg">
<circle cx="48" cy="48" r="48" fill="#E0E0E0"/>
<path fill-rule="evenodd" clip-rule="evenodd" d="M21.0833 8H74.9167C81.0378 8 86 12.9838 86 19.1317V28.2977C86 29.5023 85.3223 30.6036 84.2495 31.1424L81.4172 32.5647C80.3443 33.1035 79.6667 34.2048 79.6667 35.4094V57.3139C79.4469 57.3027 79.2257 57.2971 79.0032 57.2971C73.2131 57.2971 68.3025 61.1152 66.5865 66.404C64.7707 65.6589 62.7859 65.2485 60.7066 65.2485C52.0454 65.2485 45.024 72.3683 45.024 81.1509C45.024 82.2401 45.132 83.3037 45.3378 84.3314H25.4041C20.1574 84.3314 15.9041 80.0595 15.9041 74.7899V35.347C15.9041 34.1751 15.2624 33.0981 14.2342 32.5442L11.6699 31.1629C10.6417 30.609 10 29.532 10 28.3601V19.1317C10 12.9838 14.9622 8 21.0833 8Z" fill="white"/>
<path d="M84.2495 31.1424L84.9227 32.4828L84.2495 31.1424ZM81.4172 32.5647L82.0903 33.9052V33.9052L81.4172 32.5647ZM79.6667 57.3139L79.5907 58.8119L81.1667 58.8918V57.3139H79.6667ZM66.5865 66.404L66.017 67.7917L67.5139 68.406L68.0132 66.867L66.5865 66.404ZM45.3378 84.3314V85.8314H47.1678L46.8086 84.0369L45.3378 84.3314ZM14.2342 32.5442L13.5228 33.8648H13.5228L14.2342 32.5442ZM11.6699 31.1629L12.3813 29.8423H12.3813L11.6699 31.1629ZM74.9167 6.5H21.0833V9.5H74.9167V6.5ZM87.5 19.1317C87.5 12.1615 81.8724 6.5 74.9167 6.5V9.5C80.2033 9.5 84.5 13.8061 84.5 19.1317H87.5ZM87.5 28.2977V19.1317H84.5V28.2977H87.5ZM84.9227 32.4828C86.5046 31.6884 87.5 30.067 87.5 28.2977H84.5C84.5 28.9377 84.14 29.5188 83.5764 29.8019L84.9227 32.4828ZM82.0903 33.9052L84.9227 32.4828L83.5764 29.8019L80.744 31.2243L82.0903 33.9052ZM81.1667 35.4094C81.1667 34.7694 81.5266 34.1883 82.0903 33.9052L80.744 31.2243C79.162 32.0187 78.1667 33.6401 78.1667 35.4094H81.1667ZM81.1667 57.3139V35.4094H78.1667V57.3139H81.1667ZM79.0032 58.7971C79.2004 58.7971 79.3962 58.8021 79.5907 58.8119L79.7426 55.8158C79.4976 55.8033 79.2511 55.7971 79.0032 55.7971V58.7971ZM68.0132 66.867C69.5382 62.1672 73.8935 58.7971 79.0032 58.7971V55.7971C72.5327 55.7971 67.0668 60.0633 65.1597 65.9411L68.0132 66.867ZM60.7066 66.7485C62.5869 66.7485 64.3784 67.1193 66.017 67.7917L67.1559 65.0163C65.1629 64.1984 62.9849 63.7485 60.7066 63.7485V66.7485ZM46.524 81.1509C46.524 73.1769 52.8934 66.7485 60.7066 66.7485V63.7485C51.1973 63.7485 43.524 71.5596 43.524 81.1509H46.524ZM46.8086 84.0369C46.6222 83.1057 46.524 82.1407 46.524 81.1509H43.524C43.524 82.3395 43.6419 83.5017 43.8669 84.6258L46.8086 84.0369ZM25.4041 85.8314H45.3378V82.8314H25.4041V85.8314ZM14.4041 74.7899C14.4041 80.8818 19.3228 85.8314 25.4041 85.8314V82.8314C20.992 82.8314 17.4041 79.2373 17.4041 74.7899H14.4041ZM14.4041 35.347V74.7899H17.4041V35.347H14.4041ZM13.5228 33.8648C14.0632 34.1559 14.4041 34.7245 14.4041 35.347H17.4041C17.4041 33.6257 16.4616 32.0403 14.9456 31.2236L13.5228 33.8648ZM10.9585 32.4835L13.5228 33.8648L14.9456 31.2236L12.3813 29.8423L10.9585 32.4835ZM8.5 28.3601C8.5 30.0814 9.44248 31.6668 10.9585 32.4835L12.3813 29.8423C11.8408 29.5512 11.5 28.9826 11.5 28.3601H8.5ZM8.5 19.1317V28.3601H11.5V19.1317H8.5ZM21.0833 6.5C14.1276 6.5 8.5 12.1615 8.5 19.1317H11.5C11.5 13.8061 15.7968 9.5 21.0833 9.5V6.5Z" fill="black"/>
<path fill-rule="evenodd" clip-rule="evenodd" d="M24 20C24 21.1046 23.1046 22 22 22C20.8954 22 20 21.1046 20 20C20 18.8954 20.8954 18 22 18C23.1046 18 24 18.8954 24 20ZM36 20C36 21.1046 35.1046 22 34 22C32.8954 22 32 21.1046 32 20C32 18.8954 32.8954 18 34 18C35.1046 18 36 18.8954 36 20ZM28 35C29.1046 35 30 34.1046 30 33C30 31.8954 29.1046 31 28 31C26.8954 31 26 31.8954 26 33C26 34.1046 26.8954 35 28 35ZM74 52C74 53.1046 73.1046 54 72 54C70.8954 54 70 53.1046 70 52C70 50.8954 70.8954 50 72 50C73.1046 50 74 50.8954 74 52ZM59 66C60.1046 66 61 65.1046 61 64C61 62.8954 60.1046 62 59 62C57.8954 62 57 62.8954 57 64C57 65.1046 57.8954 66 59 66ZM46 71C46 72.1046 45.1046 73 44 73C42.8954 73 42 72.1046 42 71C42 69.8954 42.8954 69 44 69C45.1046 69 46 69.8954 46 71ZM31 83C32.1046 83 33 82.1046 33 81C33 79.8954 32.1046 79 31 79C29.8954 79 29 79.8954 29 81C29 82.1046 29.8954 83 31 83Z" fill="black"/>
<path d="M28.8186 55.7074L60.1837 23.9026" stroke="black" stroke-width="3" stroke-linecap="square"/>
<path d="M44.5013 55.7075L60.1839 39.8052" stroke="black" stroke-width="3" stroke-linecap="square"/>
<path d="M65.6553 88.3115C65.6553 90.1182 63.731 91.5828 61.3571 91.5828C58.9833 91.5828 58.1334 87.9373 58.1334 86.1306C58.1334 84.3239 61.1324 83.9497 63.5062 83.9497C65.8801 83.9497 65.6553 86.5048 65.6553 88.3115Z" fill="white" stroke="black" stroke-width="3"/>
<path d="M84.4734 74.59C84.4734 76.5975 78.4893 78.2248 75.8662 78.2248C73.2431 78.2248 77.9459 74.9315 77.9459 72.924C77.9459 70.9166 79.4815 68.6834 82.1046 68.6834C84.7278 68.6834 84.4734 72.5825 84.4734 74.59Z" fill="white" stroke="black" stroke-width="3"/>
<path d="M79.5311 90.7429C79.5311 92.1883 80.4857 94 78.7417 94C76.9976 94 76.3733 91.0836 76.3733 89.6382C76.3733 88.1928 78.5766 87.8935 80.3206 87.8935C82.0646 87.8935 79.5311 89.2976 79.5311 90.7429Z" fill="white" stroke="black" stroke-width="3"/>
</svg>
