<svg width="32" height="32" viewBox="0 0 32 32" fill="none" xmlns="http://www.w3.org/2000/svg">
<path fill-rule="evenodd" clip-rule="evenodd" d="M19.335 20.249C17.8421 21.3495 15.997 22 14 22C9.02945 22 5 17.9706 5 13C5 8.02942 9.02945 4 14 4C18.9706 4 23 8.02942 23 13C23 15.2526 22.1724 17.3119 20.8048 18.8904L26.7 25.3C27.0905 25.6905 27.1005 26.3195 26.71 26.71C26.3195 27.1006 25.7905 27.0906 25.4 26.7L19.335 20.249ZM21 13C21 16.866 17.866 20 14 20C10.134 20 7 16.866 7 13C7 9.13403 10.134 6 14 6C17.866 6 21 9.13403 21 13Z" fill="black"/>
</svg>
