<svg width="24" height="24" viewBox="0 0 24 24" fill="none" xmlns="http://www.w3.org/2000/svg">
<path fill-rule="evenodd" clip-rule="evenodd" d="M20 5.07022C19.4777 5.07022 18.2721 5.73062 17.8258 6.29617C18.4183 6.55432 18.8278 7.10641 18.8278 7.74578C18.8278 8.01333 18.7561 8.26573 18.6292 8.48757C18.2656 7.73546 17.4417 7.21067 16.4835 7.21067C16.0499 7.21067 15.8216 7.32866 15.4929 7.49853C15.4719 7.50939 15.4505 7.52047 15.4285 7.53173C15.565 6.76917 16.1959 6.14044 17.0696 6.14044C17.1026 6.14044 17.1355 6.14123 17.1681 6.14293C17.5403 5.08877 18.8943 4 20 4V5.07022ZM4 19.9558C4 19.9558 12.5 20.9531 17.5 13.4738C19.9807 9.76301 17.6429 7.98894 16.5 7.98894C15.3571 7.98894 14.5 7.98894 12.5 12.4765C11.0216 15.7937 4 19.9558 4 19.9558Z" fill="#E84E4E"/>
</svg>
