<svg width="24" height="24" viewBox="0 0 24 24" fill="none" xmlns="http://www.w3.org/2000/svg">
<path fill-rule="evenodd" clip-rule="evenodd" d="M11.2887 11.7629L11.3231 10.6615L9.49472 9.74736C9.36354 10.1581 9.25307 10.5944 9.17003 11.0567L11.2887 11.7629ZM11.2268 13.7423L9 13C9 14.3653 9.91198 15.5175 11.16 15.8808L11.2268 13.7423ZM12.7732 13.7423L15 13C15 14.3653 14.088 15.5175 12.84 15.8808L12.7732 13.7423ZM14.83 11.0567L12.7113 11.7629L12.6769 10.6615L14.5053 9.74736C14.6365 10.1581 14.7469 10.5944 14.83 11.0567ZM12.6186 8.79381L13.9427 8.35244C13.625 7.70712 13.2646 7.1472 12.9041 6.66994C12.7813 6.50741 12.6587 6.3547 12.5379 6.2118L12.6186 8.79381ZM10.0573 8.35244L11.3814 8.79381L11.4621 6.2118C11.3413 6.3547 11.2187 6.50741 11.0959 6.66994C10.7354 7.1472 10.375 7.70712 10.0573 8.35244ZM12.9037 17.9185C15.2337 17.4932 17 15.4529 17 13C17 6.23858 12 3 12 3C12 3 7 6.23858 7 13C7 15.4529 8.76625 17.4932 11.0963 17.9185L11 21H13L12.9037 17.9185Z" fill="#80B118"/>
</svg>
