<svg width="32" height="32" viewBox="0 0 32 32" fill="none" xmlns="http://www.w3.org/2000/svg">
<rect x="0.5" y="5.5" width="31" height="21" rx="2.5" stroke="#B3B3B3"/>
<path d="M12.7002 18.843L13.7669 13.1885H15.4335L14.4002 18.843H12.7002Z" fill="#3C58BF"/>
<path d="M12.7002 18.843L14.0669 13.1885H15.4335L14.4002 18.843H12.7002Z" fill="#293688"/>
<path d="M20.4334 13.2513C20.1001 13.1257 19.5667 13 18.9001 13C17.2334 13 16.0334 13.7853 16.0334 14.9163C16.0334 15.7644 16.8667 16.2042 17.5334 16.4869C18.2001 16.7697 18.4001 16.9582 18.4001 17.2095C18.4001 17.5864 17.8667 17.7749 17.4001 17.7749C16.7334 17.7749 16.3667 17.6807 15.8 17.4608L15.5667 17.3665L15.3334 18.6545C15.7334 18.8116 16.4667 18.9687 17.2334 18.9687C19.0001 18.9687 20.1667 18.1833 20.1667 16.9896C20.1667 16.3299 19.7334 15.8273 18.7334 15.4189C18.1334 15.1361 17.7667 14.9791 17.7667 14.6964C17.7667 14.445 18.0667 14.1937 18.7334 14.1937C19.3001 14.1937 19.7001 14.288 20.0001 14.4136L20.1667 14.4765L20.4334 13.2513Z" fill="#3C58BF"/>
<path d="M20.4334 13.2513C20.1001 13.1257 19.5667 13 18.9001 13C17.2334 13 16.3334 13.7853 16.3334 14.9163C16.3334 15.7644 16.8667 16.2042 17.5334 16.4869C18.2001 16.7697 18.4001 16.9582 18.4001 17.2095C18.4001 17.5864 17.8667 17.7749 17.4001 17.7749C16.7334 17.7749 16.3667 17.6807 15.8 17.4608L15.5667 17.3665L15.3334 18.6545C15.7334 18.8116 16.4667 18.9687 17.2334 18.9687C19.0001 18.9687 20.1667 18.1833 20.1667 16.9896C20.1667 16.3299 19.7334 15.8273 18.7334 15.4189C18.1334 15.1361 17.7667 14.9791 17.7667 14.6964C17.7667 14.445 18.0667 14.1937 18.7334 14.1937C19.3001 14.1937 19.7001 14.288 20.0001 14.4136L20.1667 14.4765L20.4334 13.2513Z" fill="#293688"/>
<path d="M23.3003 13.1885C22.9003 13.1885 22.6003 13.2199 22.4336 13.5969L19.9336 18.843H21.7336L22.0669 17.9006H24.2003L24.4003 18.843H26.0003L24.6003 13.1885H23.3003ZM22.5336 16.9582C22.6336 16.6754 23.2003 15.2932 23.2003 15.2932C23.2003 15.2932 23.3336 14.9477 23.4336 14.7278L23.5336 15.2618C23.5336 15.2618 23.8669 16.6754 23.9336 16.9896H22.5336V16.9582Z" fill="#3C58BF"/>
<path d="M23.7003 13.1885C23.3003 13.1885 23.0003 13.2199 22.8336 13.5969L19.9336 18.843H21.7336L22.0669 17.9006H24.2003L24.4003 18.843H26.0003L24.6003 13.1885H23.7003ZM22.5336 16.9582C22.6669 16.644 23.2003 15.2932 23.2003 15.2932C23.2003 15.2932 23.3336 14.9477 23.4336 14.7278L23.5336 15.2618C23.5336 15.2618 23.8669 16.6754 23.9336 16.9896H22.5336V16.9582Z" fill="#293688"/>
<path d="M9.63331 17.1466L9.46665 16.3298C9.16665 15.3874 8.19997 14.3508 7.1333 13.8481L8.63331 18.8744H10.4333L13.1333 13.2198H11.3333L9.63331 17.1466Z" fill="#3C58BF"/>
<path d="M9.63331 17.1466L9.46665 16.3298C9.16665 15.3874 8.19997 14.3508 7.1333 13.8481L8.63331 18.8744H10.4333L13.1333 13.2198H11.6667L9.63331 17.1466Z" fill="#293688"/>
<path d="M5 13.1885L5.3 13.2513C7.43335 13.7225 8.90002 14.9162 9.46669 16.3299L8.86669 13.6597C8.76669 13.2827 8.46669 13.1885 8.10002 13.1885H5Z" fill="#FFBC00"/>
<path d="M5 13.1885C7.13335 13.6597 8.90002 14.8848 9.46669 16.2985L8.90002 14.0681C8.80002 13.6911 8.46669 13.4712 8.10002 13.4712L5 13.1885Z" fill="#F7981D"/>
<path d="M5 13.1885C7.13335 13.6597 8.90002 14.8848 9.46669 16.2985L9.06669 15.0733C8.96669 14.6963 8.83335 14.3194 8.36669 14.1623L5 13.1885Z" fill="#ED7C00"/>
<path d="M11.2999 16.9581L10.1665 15.89L9.63318 17.0838L9.49985 16.2984C9.19985 15.356 8.23318 14.3193 7.1665 13.8167L8.66651 18.8429H10.4665L11.2999 16.9581Z" fill="#051244"/>
<path d="M14.4002 18.8429L12.9669 17.4607L12.7002 18.8429H14.4002Z" fill="#051244"/>
<path d="M18.2335 16.8952C18.3668 17.0209 18.4335 17.1151 18.4002 17.2408C18.4002 17.6177 17.8668 17.8062 17.4002 17.8062C16.7335 17.8062 16.3668 17.712 15.8002 17.4921L15.5668 17.3978L15.3335 18.6858C15.7335 18.8429 16.4668 18.9999 17.2335 18.9999C18.3002 18.9999 19.1669 18.7172 19.6669 18.2146L18.2335 16.8952Z" fill="#051244"/>
<path d="M20.1665 18.8431H21.7332L22.0665 17.9007H24.1999L24.3999 18.8431H25.9999L25.4332 16.5499L23.4332 14.7278L23.5332 15.2305C23.5332 15.2305 23.8665 16.6441 23.9332 16.9582H22.5332C22.6665 16.6441 23.1999 15.2933 23.1999 15.2933C23.1999 15.2933 23.3332 14.9477 23.4332 14.7278" fill="#051244"/>
</svg>
